<svg width="60" height="60" viewBox="0 0 60 60" fill="none" xmlns="http://www.w3.org/2000/svg">
<path fill-rule="evenodd" clip-rule="evenodd" d="M10 2.5H50C54.1421 2.5 57.5 5.85787 57.5 10V50C57.5 54.1421 54.1421 57.5 50 57.5H10C5.85787 57.5 2.5 54.1421 2.5 50V10C2.5 5.85787 5.85787 2.5 10 2.5ZM0 10C0 4.47715 4.47715 0 10 0H50C55.5228 0 60 4.47715 60 10V50C60 55.5228 55.5228 60 50 60H10C4.47715 60 0 55.5228 0 50V10ZM30 13C27.7899 13 25.6702 13.878 24.1074 15.4408C22.5446 17.0036 21.6667 19.1232 21.6667 21.3333V23H18.3333C17.4665 23 16.7444 23.6644 16.6724 24.5283L15.0058 44.5283C14.9671 44.9927 15.1246 45.4522 15.4402 45.7952C15.7558 46.1382 16.2006 46.3333 16.6667 46.3333H43.3333C43.7994 46.3333 44.2442 46.1382 44.5598 45.7952C44.8754 45.4522 45.0329 44.9927 44.9942 44.5283L43.3276 24.5283C43.2556 23.6644 42.5335 23 41.6667 23H38.3333V21.3333C38.3333 19.1232 37.4554 17.0036 35.8926 15.4408C34.3298 13.878 32.2101 13 30 13ZM21.6667 28V26.3333H19.8669L18.478 43H41.522L40.1331 26.3333H38.3333V28C38.3333 28.9205 37.5871 29.6667 36.6667 29.6667C35.7462 29.6667 35 28.9205 35 28V26.3333H25V28C25 28.9205 24.2538 29.6667 23.3333 29.6667C22.4129 29.6667 21.6667 28.9205 21.6667 28ZM25 23H35V21.3333C35 20.0072 34.4732 18.7355 33.5355 17.7978C32.5979 16.8601 31.3261 16.3333 30 16.3333C28.6739 16.3333 27.4021 16.8601 26.4645 17.7978C25.5268 18.7355 25 20.0072 25 21.3333V23Z" fill="white"/>
</svg>
