<svg width="35" height="35" viewBox="0 0 35 35" fill="none" xmlns="http://www.w3.org/2000/svg">
<path fill-rule="evenodd" clip-rule="evenodd" d="M17.4999 4.66669C15.7809 4.66669 14.1323 5.34667 12.9168 6.55701C11.7013 7.76735 11.0184 9.40891 11.0184 11.1206V12.4114H8.4258C7.75162 12.4114 7.18998 12.9259 7.13398 13.595L5.83773 29.0844C5.80763 29.444 5.93013 29.7999 6.1756 30.0655C6.42107 30.3312 6.76702 30.4823 7.12955 30.4823H27.8703C28.2328 30.4823 28.5788 30.3312 28.8242 30.0655C29.0697 29.7999 29.1922 29.444 29.1621 29.0844L27.8659 13.595C27.8099 12.9259 27.2482 12.4114 26.574 12.4114H23.9814V11.1206C23.9814 9.40891 23.2986 7.76735 22.0831 6.55701C20.8675 5.34667 19.2189 4.66669 17.4999 4.66669ZM11.0184 16.2837V14.9929H9.6186L8.53834 27.9008H26.4615L25.3812 14.9929H23.9814V16.2837C23.9814 16.9966 23.401 17.5745 22.6851 17.5745C21.9692 17.5745 21.3888 16.9966 21.3888 16.2837V14.9929H13.611V16.2837C13.611 16.9966 13.0306 17.5745 12.3147 17.5745C11.5988 17.5745 11.0184 16.9966 11.0184 16.2837ZM13.611 12.4114H21.3888V11.1206C21.3888 10.0935 20.9791 9.10865 20.2498 8.38243C19.5205 7.65621 18.5313 7.24822 17.4999 7.24822C16.4685 7.24822 15.4793 7.65621 14.7501 8.38243C14.0208 9.10865 13.611 10.0935 13.611 11.1206V12.4114Z" fill="white"/>
</svg>
